<svg width="26" height="23" viewBox="0 0 26 23" fill="none" xmlns="http://www.w3.org/2000/svg">
<path d="M22.8637 0.2146H6.69781C5.29484 0.2146 4.15341 1.34536 4.15341 2.73073L4.04923 16.9656H0.894381C0.6708 16.9656 0.5 17.1633 0.5 17.3869V19.3459C0.5 21.1799 1.96761 22.6797 3.73886 22.7619V22.7854H17.3522V22.759C17.4534 22.7631 17.5147 22.7854 17.5843 22.7854H17.594C19.4831 22.7744 21.0058 21.2346 20.9959 19.3455V6.89476H25.1056C25.3292 6.89476 25.5 6.69233 25.5 6.46895V2.87445C25.5026 1.41356 24.3246 0.225077 22.8637 0.2146V0.2146ZM3.91599 21.9757H3.91322C2.47309 21.9757 1.30972 20.7855 1.30972 19.3455V17.7753H14.164V19.3388C14.1608 20.2501 14.5208 21.1251 15.1642 21.7703C15.2326 21.8391 15.3042 21.8745 15.3773 21.9757H3.91599ZM20.1862 19.3451C20.1862 20.7855 19.0341 21.9757 17.5934 21.9757H17.5851C16.1372 21.9653 14.9703 20.7869 14.9737 19.339V17.3869C14.9749 17.1601 14.7956 16.9735 14.5688 16.9656H4.85895L4.96313 2.7335C4.96313 1.79193 5.74121 1.02432 6.69781 1.02432H20.9523C20.4909 1.53039 20.1862 2.17069 20.1862 2.88532V19.3451ZM24.6903 2.88156V6.08504H20.9959V2.88453C20.9959 1.8712 21.8389 1.02432 22.8518 1.02432H22.8631C23.8786 1.0344 24.695 1.86289 24.6903 2.8786V2.88156Z" fill="#FAFAFA"/>
<path d="M10.0068 10.1798L12.0942 11.6069C12.2304 11.7008 12.4105 11.7008 12.5467 11.6069L14.6277 10.1802C15.3506 9.68699 15.8846 8.65587 15.8846 7.78151V4.89413C15.8889 4.74152 15.8047 4.59997 15.6687 4.53059L12.4905 2.9673C12.379 2.91194 12.2482 2.91194 12.1367 2.9673L8.96443 4.52624C8.82842 4.59562 8.74441 4.73717 8.74895 4.88978V7.78151C8.74895 8.65587 9.28409 9.68699 10.0068 10.1798ZM9.55867 5.14242L12.3168 3.78156L15.0749 5.14618V7.78151C15.0749 8.39137 14.6751 9.16708 14.1709 9.51086L12.312 10.7822L10.4605 9.51105C9.95622 9.16688 9.55867 8.39137 9.55867 7.78151V5.14242Z" fill="#FAFAFA"/>
<path d="M11.632 8.39278C11.7076 8.46987 11.8108 8.51356 11.9187 8.51416H11.9197C12.0272 8.51376 12.1302 8.47067 12.2059 8.39436L13.8165 6.78323C13.9748 6.62508 13.9748 6.36848 13.8167 6.21034C13.6587 6.05199 13.4021 6.05199 13.244 6.21014L11.9211 7.53285L11.3923 6.9989C11.2347 6.83996 10.9783 6.83878 10.8194 6.99633C10.6604 7.15389 10.6594 7.41028 10.8168 7.56922L11.632 8.39278Z" fill="#FAFAFA"/>
<path d="M17.3523 12.7651H7.63569C7.41211 12.7651 7.23083 12.9464 7.23083 13.17C7.23083 13.3936 7.41211 13.5749 7.63569 13.5749H17.3523C17.5759 13.5749 17.7572 13.3936 17.7572 13.17C17.7572 12.9464 17.5759 12.7651 17.3523 12.7651Z" fill="#FAFAFA"/>
<path d="M17.3523 14.6377H7.63569C7.41211 14.6377 7.23083 14.819 7.23083 15.0426C7.23083 15.2661 7.41211 15.4474 7.63569 15.4474H17.3523C17.5759 15.4474 17.7572 15.2661 17.7572 15.0426C17.7572 14.819 17.5759 14.6377 17.3523 14.6377Z" fill="#FAFAFA"/>
</svg>
