<svg width="26" height="25" viewBox="0 0 26 25" fill="none" xmlns="http://www.w3.org/2000/svg">
<path d="M25.4937 25.0001V24.999H25.4999V15.8303C25.4999 11.3449 24.5343 7.88965 19.2906 7.88965C16.7697 7.88965 15.0781 9.27298 14.3874 10.5844H14.3145V8.3084H9.34265V24.999H14.5197V16.7344C14.5197 14.5584 14.9322 12.4542 17.627 12.4542C20.2822 12.4542 20.3218 14.9376 20.3218 16.874V25.0001H25.4937Z" fill="#FAFAFA"/>
<path d="M0.912476 8.30933H6.09581V24.9999H0.912476V8.30933Z" fill="#FAFAFA"/>
<path d="M3.50208 0C1.84479 0 0.5 1.34479 0.5 3.00208C0.5 4.65937 1.84479 6.03229 3.50208 6.03229C5.15937 6.03229 6.50417 4.65937 6.50417 3.00208C6.50312 1.34479 5.15833 0 3.50208 0V0Z" fill="#FAFAFA"/>
</svg>
