<svg width="26" height="21" viewBox="0 0 26 21" fill="none" xmlns="http://www.w3.org/2000/svg">
<path d="M23.5052 2.93029L25.5 1.02196V0.604248H18.5896L13.6646 12.8626L8.06146 0.604248H0.815625V1.02196L3.14583 3.82716C3.37292 4.03446 3.49167 4.33758 3.46146 4.64279V15.6667C3.53333 16.0636 3.40417 16.472 3.125 16.7605L0.5 19.9417V20.3542H7.94271V19.9365L5.31771 16.7605C5.03333 16.4709 4.89896 16.0699 4.95625 15.6667V6.13133L11.4896 20.3595H12.249L17.8667 6.13133V17.4657C17.8667 17.7647 17.8667 17.8261 17.6708 18.022L15.65 19.9772V20.3959H25.4542V19.9782L23.5063 18.0709C23.3354 17.9417 23.2469 17.7251 23.2833 17.5147V3.48654C23.2469 3.27508 23.3344 3.05841 23.5052 2.93029Z" fill="#FAFAFA"/>
</svg>
