<svg width="26" height="19" viewBox="0 0 26 19" fill="none" xmlns="http://www.w3.org/2000/svg">
<path d="M24.9469 3.17598L24.9782 3.38014C24.6761 2.30827 23.8605 1.48118 22.824 1.18014L22.8021 1.17493C20.8532 0.645766 13.0105 0.645766 13.0105 0.645766C13.0105 0.645766 5.18756 0.63535 3.21881 1.17493C2.16256 1.48118 1.3459 2.30827 1.04902 3.35827L1.04381 3.38014C0.315687 7.18327 0.310479 11.7531 1.0761 15.8249L1.04381 15.6187C1.3459 16.6906 2.16152 17.5176 3.19798 17.8187L3.21985 17.8239C5.16673 18.3541 13.0115 18.3541 13.0115 18.3541C13.0115 18.3541 20.8334 18.3541 22.8032 17.8239C23.8605 17.5176 24.6771 16.6906 24.974 15.6406L24.9792 15.6187C25.3105 13.8499 25.5 11.8145 25.5 9.73535C25.5 9.65931 25.5 9.58223 25.499 9.50514C25.5 9.43431 25.5 9.34993 25.5 9.26556C25.5 7.18535 25.3105 5.14993 24.9469 3.17598ZM10.5084 13.3031V5.70618L17.0355 9.51035L10.5084 13.3031Z" fill="#FAFAFA"/>
</svg>
